  0
SECTION
  2
HEADER
  9
$ACADVER
  1
AC1024
  9
$ACADMAINTVER
 70
6
  9
$DWGCODEPAGE
  3
ANSI_1252
  9
$LASTSAVEDBY
  1
ezdxf
  9
$INSBASE
 10
0.0
 20
0.0
 30
0.0
  9
$EXTMIN
 10
1e+20
 20
1e+20
 30
1e+20
  9
$EXTMAX
 10
-1e+20
 20
-1e+20
 30
-1e+20
  9
$LIMMIN
 10
0.0
 20
0.0
  9
$LIMMAX
 10
420.0
 20
297.0
  9
$ORTHOMODE
 70
0
  9
$REGENMODE
 70
1
  9
$FILLMODE
 70
1
  9
$QTEXTMODE
 70
0
  9
$MIRRTEXT
 70
1
  9
$LTSCALE
 40
1.0
  9
$ATTMODE
 70
1
  9
$TEXTSIZE
 40
2.5
  9
$TRACEWID
 40
1.0
  9
$TEXTSTYLE
  7
Standard
  9
$CLAYER
  8
0
  9
$CELTYPE
  6
ByLayer
  9
$CECOLOR
 62
256
  9
$CELTSCALE
 40
1.0
  9
$DISPSILH
 70
0
  9
$DIMSCALE
 40
1.0
  9
$DIMASZ
 40
2.5
  9
$DIMEXO
 40
0.625
  9
$DIMDLI
 40
3.75
  9
$DIMRND
 40
0.0
  9
$DIMDLE
 40
0.0
  9
$DIMEXE
 40
1.25
  9
$DIMTP
 40
0.0
  9
$DIMTM
 40
0.0
  9
$DIMTXT
 40
2.5
  9
$DIMCEN
 40
2.5
  9
$DIMTSZ
 40
0.0
  9
$DIMTOL
 70
0
  9
$DIMLIM
 70
0
  9
$DIMTIH
 70
0
  9
$DIMTOH
 70
0
  9
$DIMSE1
 70
0
  9
$DIMSE2
 70
0
  9
$DIMTAD
 70
1
  9
$DIMZIN
 70
8
  9
$DIMBLK
  1

  9
$DIMASO
 70
1
  9
$DIMSHO
 70
1
  9
$DIMPOST
  1

  9
$DIMAPOST
  1

  9
$DIMALT
 70
0
  9
$DIMALTD
 70
3
  9
$DIMALTF
 40
0.03937007874
  9
$DIMLFAC
 40
1.0
  9
$DIMTOFL
 70
1
  9
$DIMTVP
 40
0.0
  9
$DIMTIX
 70
0
  9
$DIMSOXD
 70
0
  9
$DIMSAH
 70
0
  9
$DIMBLK1
  1

  9
$DIMBLK2
  1

  9
$DIMSTYLE
  2
ISO-25
  9
$DIMCLRD
 70
0
  9
$DIMCLRE
 70
0
  9
$DIMCLRT
 70
0
  9
$DIMTFAC
 40
1.0
  9
$DIMGAP
 40
0.625
  9
$DIMJUST
 70
0
  9
$DIMSD1
 70
0
  9
$DIMSD2
 70
0
  9
$DIMTOLJ
 70
0
  9
$DIMTZIN
 70
8
  9
$DIMALTZ
 70
0
  9
$DIMALTTZ
 70
0
  9
$DIMUPT
 70
0
  9
$DIMDEC
 70
2
  9
$DIMTDEC
 70
2
  9
$DIMALTU
 70
2
  9
$DIMALTTD
 70
3
  9
$DIMTXSTY
  7
Standard
  9
$DIMAUNIT
 70
0
  9
$DIMADEC
 70
0
  9
$DIMALTRND
 40
0.0
  9
$DIMAZIN
 70
0
  9
$DIMDSEP
 70
44
  9
$DIMATFIT
 70
3
  9
$DIMFRAC
 70
0
  9
$DIMLDRBLK
  1

  9
$DIMLUNIT
 70
2
  9
$DIMLWD
 70
-2
  9
$DIMLWE
 70
-2
  9
$DIMTMOVE
 70
0
  9
$DIMFXL
 40
1.0
  9
$DIMFXLON
 70
0
  9
$DIMJOGANG
 40
0.785398163397
  9
$DIMTFILL
 70
0
  9
$DIMTFILLCLR
 70
0
  9
$DIMARCSYM
 70
0
  9
$DIMLTYPE
  6

  9
$DIMLTEX1
  6

  9
$DIMLTEX2
  6

  9
$DIMTXTDIRECTION
 70
0
  9
$LUNITS
 70
2
  9
$LUPREC
 70
4
  9
$SKETCHINC
 40
1.0
  9
$FILLETRAD
 40
10.0
  9
$AUNITS
 70
0
  9
$AUPREC
 70
2
  9
$MENU
  1
.
  9
$ELEVATION
 40
0.0
  9
$PELEVATION
 40
0.0
  9
$THICKNESS
 40
0.0
  9
$LIMCHECK
 70
0
  9
$CHAMFERA
 40
0.0
  9
$CHAMFERB
 40
0.0
  9
$CHAMFERC
 40
0.0
  9
$CHAMFERD
 40
0.0
  9
$SKPOLY
 70
0
  9
$TDCREATE
 40
2461177.474050926
  9
$TDUCREATE
 40
2458532.153996898
  9
$TDUPDATE
 40
2461177.474050926
  9
$TDUUPDATE
 40
2458532.1544311
  9
$TDINDWG
 40
0.0
  9
$TDUSRTIMER
 40
0.0
  9
$USRTIMER
 70
1
  9
$ANGBASE
 50
0.0
  9
$ANGDIR
 70
0
  9
$PDMODE
 70
0
  9
$PDSIZE
 40
0.0
  9
$PLINEWID
 40
0.0
  9
$SPLFRAME
 70
0
  9
$SPLINETYPE
 70
6
  9
$SPLINESEGS
 70
8
  9
$HANDSEED
  5
4B
  9
$SURFTAB1
 70
6
  9
$SURFTAB2
 70
6
  9
$SURFTYPE
 70
6
  9
$SURFU
 70
6
  9
$SURFV
 70
6
  9
$UCSBASE
  2

  9
$UCSNAME
  2

  9
$UCSORG
 10
0.0
 20
0.0
 30
0.0
  9
$UCSXDIR
 10
1.0
 20
0.0
 30
0.0
  9
$UCSYDIR
 10
0.0
 20
1.0
 30
0.0
  9
$UCSORTHOREF
  2

  9
$UCSORTHOVIEW
 70
0
  9
$UCSORGTOP
 10
0.0
 20
0.0
 30
0.0
  9
$UCSORGBOTTOM
 10
0.0
 20
0.0
 30
0.0
  9
$UCSORGLEFT
 10
0.0
 20
0.0
 30
0.0
  9
$UCSORGRIGHT
 10
0.0
 20
0.0
 30
0.0
  9
$UCSORGFRONT
 10
0.0
 20
0.0
 30
0.0
  9
$UCSORGBACK
 10
0.0
 20
0.0
 30
0.0
  9
$PUCSBASE
  2

  9
$PUCSNAME
  2

  9
$PUCSORG
 10
0.0
 20
0.0
 30
0.0
  9
$PUCSXDIR
 10
1.0
 20
0.0
 30
0.0
  9
$PUCSYDIR
 10
0.0
 20
1.0
 30
0.0
  9
$PUCSORTHOREF
  2

  9
$PUCSORTHOVIEW
 70
0
  9
$PUCSORGTOP
 10
0.0
 20
0.0
 30
0.0
  9
$PUCSORGBOTTOM
 10
0.0
 20
0.0
 30
0.0
  9
$PUCSORGLEFT
 10
0.0
 20
0.0
 30
0.0
  9
$PUCSORGRIGHT
 10
0.0
 20
0.0
 30
0.0
  9
$PUCSORGFRONT
 10
0.0
 20
0.0
 30
0.0
  9
$PUCSORGBACK
 10
0.0
 20
0.0
 30
0.0
  9
$USERI1
 70
0
  9
$USERI2
 70
0
  9
$USERI3
 70
0
  9
$USERI4
 70
0
  9
$USERI5
 70
0
  9
$USERR1
 40
0.0
  9
$USERR2
 40
0.0
  9
$USERR3
 40
0.0
  9
$USERR4
 40
0.0
  9
$USERR5
 40
0.0
  9
$WORLDVIEW
 70
1
  9
$SHADEDGE
 70
3
  9
$SHADEDIF
 70
70
  9
$TILEMODE
 70
1
  9
$MAXACTVP
 70
64
  9
$PINSBASE
 10
0.0
 20
0.0
 30
0.0
  9
$PLIMCHECK
 70
0
  9
$PEXTMIN
 10
1e+20
 20
1e+20
 30
1e+20
  9
$PEXTMAX
 10
-1e+20
 20
-1e+20
 30
-1e+20
  9
$PLIMMIN
 10
0.0
 20
0.0
  9
$PLIMMAX
 10
420.0
 20
297.0
  9
$UNITMODE
 70
0
  9
$VISRETAIN
 70
1
  9
$PLINEGEN
 70
0
  9
$PSLTSCALE
 70
1
  9
$TREEDEPTH
 70
3020
  9
$CMLSTYLE
  2
Standard
  9
$CMLJUST
 70
0
  9
$CMLSCALE
 40
20.0
  9
$PROXYGRAPHICS
 70
1
  9
$MEASUREMENT
 70
1
  9
$CELWEIGHT
370
-1
  9
$ENDCAPS
280
0
  9
$JOINSTYLE
280
0
  9
$LWDISPLAY
290
0
  9
$INSUNITS
 70
6
  9
$HYPERLINKBASE
  1

  9
$STYLESHEET
  1

  9
$XEDIT
290
1
  9
$CEPSNTYPE
380
0
  9
$PSTYLEMODE
290
1
  9
$FINGERPRINTGUID
  2
{CEE9237A-BA83-4242-AB4C-30A34CC888D4}
  9
$VERSIONGUID
  2
{7B6C30EB-5F2D-4075-BF6B-26AD67551E5E}
  9
$EXTNAMES
290
1
  9
$PSVPSCALE
 40
0.0
  9
$OLESTARTUP
290
0
  9
$SORTENTS
280
127
  9
$INDEXCTL
280
0
  9
$HIDETEXT
280
1
  9
$XCLIPFRAME
280
1
  9
$HALOGAP
280
0
  9
$OBSCOLOR
 70
257
  9
$OBSLTYPE
280
0
  9
$INTERSECTIONDISPLAY
280
0
  9
$INTERSECTIONCOLOR
 70
257
  9
$DIMASSOC
280
2
  9
$PROJECTNAME
  1

  9
$CAMERADISPLAY
290
0
  9
$LENSLENGTH
 40
50.0
  9
$CAMERAHEIGHT
 40
0.0
  9
$STEPSPERSEC
 40
24.0
  9
$STEPSIZE
 40
100.0
  9
$3DDWFPREC
 40
2.0
  9
$PSOLWIDTH
 40
0.005
  9
$PSOLHEIGHT
 40
0.08
  9
$LOFTANG1
 40
1.570796326795
  9
$LOFTANG2
 40
1.570796326795
  9
$LOFTMAG1
 40
0.0
  9
$LOFTMAG2
 40
0.0
  9
$LOFTPARAM
 70
7
  9
$LOFTNORMALS
280
1
  9
$LATITUDE
 40
37.795
  9
$LONGITUDE
 40
-122.394
  9
$NORTHDIRECTION
 40
0.0
  9
$TIMEZONE
 70
-8000
  9
$LIGHTGLYPHDISPLAY
280
1
  9
$TILEMODELIGHTSYNCH
280
1
  9
$CMATERIAL
347
20
  9
$SOLIDHIST
280
0
  9
$SHOWHIST
280
1
  9
$DWFFRAME
280
2
  9
$DGNFRAME
280
2
  9
$REALWORLDSCALE
290
1
  9
$INTERFERECOLOR
 62
256
  9
$CSHADOW
280
0
  9
$SHADOWPLANELOCATION
 40
0.0
  0
ENDSEC
  0
SECTION
  2
CLASSES
  0
CLASS
  1
ACDBDICTIONARYWDFLT
  2
AcDbDictionaryWithDefault
  3
ObjectDBX Classes
 90
0
 91
0
280
0
281
0
  0
CLASS
  1
SUN
  2
AcDbSun
  3
SCENEOE
 90
1153
 91
0
280
0
281
0
  0
CLASS
  1
VISUALSTYLE
  2
AcDbVisualStyle
  3
ObjectDBX Classes
 90
4095
 91
0
280
0
281
0
  0
CLASS
  1
MATERIAL
  2
AcDbMaterial
  3
ObjectDBX Classes
 90
1153
 91
0
280
0
281
0
  0
CLASS
  1
SCALE
  2
AcDbScale
  3
ObjectDBX Classes
 90
1153
 91
0
280
0
281
0
  0
CLASS
  1
TABLESTYLE
  2
AcDbTableStyle
  3
ObjectDBX Classes
 90
4095
 91
0
280
0
281
0
  0
CLASS
  1
MLEADERSTYLE
  2
AcDbMLeaderStyle
  3
ACDB_MLEADERSTYLE_CLASS
 90
4095
 91
0
280
0
281
0
  0
CLASS
  1
DICTIONARYVAR
  2
AcDbDictionaryVar
  3
ObjectDBX Classes
 90
0
 91
0
280
0
281
0
  0
CLASS
  1
CELLSTYLEMAP
  2
AcDbCellStyleMap
  3
ObjectDBX Classes
 90
1152
 91
0
280
0
281
0
  0
CLASS
  1
MENTALRAYRENDERSETTINGS
  2
AcDbMentalRayRenderSettings
  3
SCENEOE
 90
1024
 91
0
280
0
281
0
  0
CLASS
  1
ACDBDETAILVIEWSTYLE
  2
AcDbDetailViewStyle
  3
ObjectDBX Classes
 90
1025
 91
0
280
0
281
0
  0
CLASS
  1
ACDBSECTIONVIEWSTYLE
  2
AcDbSectionViewStyle
  3
ObjectDBX Classes
 90
1025
 91
0
280
0
281
0
  0
CLASS
  1
RASTERVARIABLES
  2
AcDbRasterVariables
  3
ISM
 90
0
 91
0
280
0
281
0
  0
CLASS
  1
ACDBPLACEHOLDER
  2
AcDbPlaceHolder
  3
ObjectDBX Classes
 90
0
 91
0
280
0
281
0
  0
CLASS
  1
LAYOUT
  2
AcDbLayout
  3
ObjectDBX Classes
 90
0
 91
0
280
0
281
0
  0
ENDSEC
  0
SECTION
  2
TABLES
  0
TABLE
  2
VPORT
  5
8
330
0
100
AcDbSymbolTable
 70
1
  0
VPORT
  5
23
330
8
100
AcDbSymbolTableRecord
100
AcDbViewportTableRecord
  2
*Active
 70
0
 10
0.0
 20
0.0
 11
1.0
 21
1.0
 12
0.0
 22
0.0
 13
0.0
 23
0.0
 14
0.5
 24
0.5
 15
0.5
 25
0.5
 16
0.0
 26
0.0
 36
1.0
 17
0.0
 27
0.0
 37
0.0
 40
1000.0
 41
1.34
 42
50.0
 43
0.0
 44
0.0
 50
0.0
 51
0.0
 71
0
 72
1000
 73
1
 74
3
 75
0
 76
0
 77
0
 78
0
281
0
 65
0
146
0.0
  0
ENDTAB
  0
TABLE
  2
LTYPE
  5
2
330
0
100
AcDbSymbolTable
 70
3
  0
LTYPE
  5
24
330
2
100
AcDbSymbolTableRecord
100
AcDbLinetypeTableRecord
  2
ByBlock
 70
0
  3

 72
65
 73
0
 40
0.0
  0
LTYPE
  5
25
330
2
100
AcDbSymbolTableRecord
100
AcDbLinetypeTableRecord
  2
ByLayer
 70
0
  3

 72
65
 73
0
 40
0.0
  0
LTYPE
  5
26
330
2
100
AcDbSymbolTableRecord
100
AcDbLinetypeTableRecord
  2
Continuous
 70
0
  3

 72
65
 73
0
 40
0.0
  0
ENDTAB
  0
TABLE
  2
LAYER
  5
1
330
0
100
AcDbSymbolTable
 70
5
  0
LAYER
  5
27
330
1
100
AcDbSymbolTableRecord
100
AcDbLayerTableRecord
  2
0
 70
0
 62
7
  6
Continuous
370
-3
390
13
347
21
  0
LAYER
  5
28
330
1
100
AcDbSymbolTableRecord
100
AcDbLayerTableRecord
  2
Defpoints
 70
0
 62
7
  6
Continuous
290
0
370
-3
390
13
347
21
  0
LAYER
  5
2F
330
1
100
AcDbSymbolTableRecord
100
AcDbLayerTableRecord
  2
OUTLINE
 70
0
 62
7
  6
Continuous
370
-3
390
13
347
21
  0
LAYER
  5
30
330
1
100
AcDbSymbolTableRecord
100
AcDbLayerTableRecord
  2
LOGO
 70
0
 62
3
  6
Continuous
370
-3
390
13
347
21
  0
LAYER
  5
31
330
1
100
AcDbSymbolTableRecord
100
AcDbLayerTableRecord
  2
CELLS
 70
0
 62
5
  6
Continuous
370
-3
390
13
347
21
  0
ENDTAB
  0
TABLE
  2
STYLE
  5
5
330
0
100
AcDbSymbolTable
 70
1
  0
STYLE
  5
29
330
5
100
AcDbSymbolTableRecord
100
AcDbTextStyleTableRecord
  2
Standard
 70
0
 40
0.0
 41
1.0
 50
0.0
 71
0
 42
2.5
  3
txt
  4

  0
ENDTAB
  0
TABLE
  2
VIEW
  5
7
330
0
100
AcDbSymbolTable
 70
0
  0
ENDTAB
  0
TABLE
  2
UCS
  5
6
330
0
100
AcDbSymbolTable
 70
0
  0
ENDTAB
  0
TABLE
  2
APPID
  5
3
330
0
100
AcDbSymbolTable
 70
3
  0
APPID
  5
2A
330
3
100
AcDbSymbolTableRecord
100
AcDbRegAppTableRecord
  2
ACAD
 70
0
  0
APPID
  5
48
330
3
100
AcDbSymbolTableRecord
100
AcDbRegAppTableRecord
  2
HATCHBACKGROUNDCOLOR
 70
0
  0
APPID
  5
49
330
3
100
AcDbSymbolTableRecord
100
AcDbRegAppTableRecord
  2
EZDXF
 70
0
  0
ENDTAB
  0
TABLE
  2
DIMSTYLE
  5
4
330
0
100
AcDbSymbolTable
 70
1
100
AcDbDimStyleTable
  0
DIMSTYLE
105
2B
330
4
100
AcDbSymbolTableRecord
100
AcDbDimStyleTableRecord
  2
Standard
 70
0
 40
1.0
 41
2.5
 42
0.625
 43
3.75
 44
1.25
 45
0.0
 46
0.0
 47
0.0
 48
0.0
 49
2.5
140
2.5
141
2.5
142
0.0
143
0.03937007874
144
1.0
145
0.0
146
1.0
147
0.625
148
0.0
 69
0
 70
0
 71
0
 72
0
 73
0
 74
0
 75
0
 76
0
 77
1
 78
8
 79
3
170
0
171
3
172
1
173
0
174
0
175
0
176
0
177
0
178
0
179
2
271
2
272
2
273
2
274
3
275
0
276
0
277
2
278
44
279
0
280
0
281
0
282
0
283
0
284
8
285
0
286
0
288
0
289
3
290
0
371
-2
372
-2
  0
ENDTAB
  0
TABLE
  2
BLOCK_RECORD
  5
9
330
0
100
AcDbSymbolTable
 70
2
  0
BLOCK_RECORD
  5
17
330
9
100
AcDbSymbolTableRecord
100
AcDbBlockTableRecord
  2
*Model_Space
340
1A
 70
0
280
1
281
0
  0
BLOCK_RECORD
  5
1B
330
9
100
AcDbSymbolTableRecord
100
AcDbBlockTableRecord
  2
*Paper_Space
340
1E
 70
0
280
1
281
0
  0
ENDTAB
  0
ENDSEC
  0
SECTION
  2
BLOCKS
  0
BLOCK
  5
18
330
17
100
AcDbEntity
  8
0
100
AcDbBlockBegin
  2
*Model_Space
 70
0
 10
0.0
 20
0.0
 30
0.0
  3
*Model_Space
  1

  0
ENDBLK
  5
19
330
17
100
AcDbEntity
  8
0
100
AcDbBlockEnd
  0
BLOCK
  5
1C
330
1B
100
AcDbEntity
  8
0
100
AcDbBlockBegin
  2
*Paper_Space
 70
0
 10
0.0
 20
0.0
 30
0.0
  3
*Paper_Space
  1

  0
ENDBLK
  5
1D
330
1B
100
AcDbEntity
  8
0
100
AcDbBlockEnd
  0
ENDSEC
  0
SECTION
  2
ENTITIES
  0
LWPOLYLINE
  5
32
330
17
100
AcDbEntity
  8
OUTLINE
100
AcDbPolyline
 90
4
 70
1
 10
0.0
 20
0.0
 10
476.0
 20
0.0
 10
0.0
 20
476.0
 10
0.0
 20
0.0
  0
LWPOLYLINE
  5
33
330
17
100
AcDbEntity
  8
LOGO
100
AcDbPolyline
 90
69
 70
1
 10
79.5
 20
74.5
 10
79.0099142983522
 20
74.52407636663901
 10
78.52454838991936
 20
74.59607359798385
 10
78.04857661372769
 20
74.71529832133896
 10
77.58658283817455
 20
74.88060233744356
 10
77.14301631587001
 20
75.09039367825822
 10
76.72214883490199
 20
75.34265193848728
 10
76.32803357918178
 20
75.63494773318632
 10
75.96446609406726
 20
75.96446609406726
 10
75.63494773318631
 20
76.32803357918178
 10
75.34265193848728
 20
76.72214883490199
 10
75.09039367825822
 20
77.14301631587001
 10
74.88060233744356
 20
77.58658283817455
 10
74.71529832133895
 20
78.04857661372769
 10
74.59607359798385
 20
78.52454838991936
 10
74.52407636663901
 20
79.0099142983522
 10
74.5
 20
79.5
 10
74.5
 20
199.5
 10
74.52407636663902
 20
199.9900857016478
 10
74.59607359798385
 20
200.47545161008065
 10
74.71529832133896
 20
200.95142338627232
 10
74.88060233744356
 20
201.41341716182544
 10
75.09039367825822
 20
201.85698368413
 10
75.34265193848728
 20
202.277851165098
 10
75.63494773318631
 20
202.67196642081822
 10
75.96446609406726
 20
203.03553390593274
 10
76.32803357918178
 20
203.36505226681368
 10
76.72214883490199
 20
203.65734806151272
 10
77.14301631587001
 20
203.90960632174176
 10
77.58658283817455
 20
204.11939766255642
 10
78.04857661372769
 20
204.28470167866104
 10
78.52454838991936
 20
204.40392640201614
 10
79.0099142983522
 20
204.475923633361
 10
79.5
 20
204.5
 10
199.5
 20
204.5
 10
199.9900857016478
 20
204.475923633361
 10
200.47545161008065
 20
204.40392640201614
 10
200.95142338627232
 20
204.28470167866104
 10
201.41341716182544
 20
204.11939766255642
 10
201.85698368413
 20
203.90960632174176
 10
202.277851165098
 20
203.65734806151272
 10
202.67196642081822
 20
203.36505226681368
 10
203.03553390593274
 20
203.03553390593274
 10
203.36505226681368
 20
202.67196642081822
 10
203.65734806151272
 20
202.277851165098
 10
203.90960632174176
 20
201.85698368413
 10
204.11939766255642
 20
201.41341716182544
 10
204.28470167866104
 20
200.95142338627232
 10
204.40392640201614
 20
200.47545161008065
 10
204.475923633361
 20
199.9900857016478
 10
204.5
 20
199.5
 10
204.5
 20
79.5
 10
204.475923633361
 20
79.0099142983522
 10
204.40392640201614
 20
78.52454838991936
 10
204.28470167866104
 20
78.04857661372769
 10
204.11939766255642
 20
77.58658283817455
 10
203.90960632174176
 20
77.14301631587001
 10
203.65734806151272
 20
76.72214883490199
 10
203.36505226681368
 20
76.32803357918178
 10
203.03553390593274
 20
75.96446609406726
 10
202.67196642081822
 20
75.63494773318632
 10
202.277851165098
 20
75.34265193848728
 10
201.85698368413
 20
75.09039367825822
 10
201.41341716182544
 20
74.88060233744356
 10
200.95142338627232
 20
74.71529832133895
 10
200.47545161008065
 20
74.59607359798385
 10
199.9900857016478
 20
74.52407636663902
 10
199.5
 20
74.5
 10
79.5
 20
74.5
  0
LWPOLYLINE
  5
34
330
17
100
AcDbEntity
  8
CELLS
100
AcDbPolyline
 90
32
 70
1
 10
41.152475920542585
 20
60.66871889896238
 10
43.95444575313443
 20
59.68284875015073
 10
46.34321680378913
 20
57.91741742590537
 10
82.84009388753162
 20
21.342971943421475
 10
83.92894844449646
 20
19.71296643685775
 10
84.67890224294447
 20
17.901864148789926
 10
85.0611381416982
 20
15.979257086659166
 10
85.0609686415006
 20
14.019021853601455
 10
84.67840025543441
 20
12.096480923573216
 10
83.92813325865544
 20
10.285508358569711
 10
82.83899682705652
 20
8.655691181394571
 10
81.4528412697846
 20
7.269655478861884
 10
78.93583546973738
 20
5.761121951110507
 10
77.05999807531417
 20
5.192126109882556
 10
75.10920086505563
 20
5.0
 10
15.0
 20
5.0
 10
12.097153227455376
 20
5.430596642677912
 10
10.28603263174002
 20
6.180787356516451
 10
8.656067158363541
 20
7.269895466372633
 10
7.269895466372629
 20
8.656067158363548
 10
5.761204674887132
 20
11.173165676349104
 10
5.192147195967696
 20
13.049096779838717
 10
5.0
 20
15.0
 10
5.0
 20
55.49628504790862
 10
5.427169541454829
 20
58.38781008012776
 10
6.672183402389969
 20
61.03230082792324
 10
7.906662300908913
 20
62.54501261298398
 10
10.247825302110254
 20
64.29496879269321
 10
12.99498516063375
 20
65.29321903226929
 10
14.936912057330634
 20
65.49608604150293
 10
16.88124401471902
 20
65.31773712777358
 10
41.152475920542585
 20
60.66871889896238
  0
LWPOLYLINE
  5
35
330
17
100
AcDbEntity
  8
CELLS
100
AcDbPolyline
 90
32
 70
1
 10
393.94292036526764
 20
17.506737825225752
 10
401.6801092380896
 20
47.18698777819432
 10
402.55630838207054
 20
48.98410532402893
 10
403.7724999991517
 20
50.57099989015519
 10
404.4933817860031
 20
51.26539012846516
 10
406.12467895967404
 20
52.42134252568263
 10
407.9533281163054
 20
53.22967332146563
 10
409.90623163155476
 20
53.65807065290696
 10
411.9053249915068
 20
53.68940995180315
 10
412.8972054335091
 20
53.555165613197765
 10
414.8160477072255
 20
52.9935601092552
 10
415.7237856492107
 20
52.57182537941341
 10
417.3905154649664
 20
51.46757534670773
 10
446.857864376269
 20
22.07106781186547
 10
448.10149268742896
 20
20.55570233019602
 10
449.3561999217256
 20
17.90284677254462
 10
449.7386438311255
 20
15.980171403295603
 10
449.7386438311255
 20
14.019828596704391
 10
449.02559188951636
 20
11.1731656763491
 10
447.51690109803087
 20
8.656067158363543
 10
446.13072940603996
 20
7.26989546637263
 10
444.5007639326635
 20
6.180787356516449
 10
441.7376997845648
 20
5.192147195967696
 10
439.7867965644035
 20
5.0
 10
402.6650200273351
 20
5.046053325465094
 10
399.8769782688067
 20
5.728400792278727
 10
397.3976152512258
 20
7.1746144486302645
 10
395.4312001128813
 20
9.26554400661522
 10
394.48740258571974
 20
10.934384511212816
 10
393.7088754994128
 20
13.697113323212266
 10
393.6424546691479
 20
15.61319543924196
 10
393.94292036526764
 20
17.506737825225752
  0
LWPOLYLINE
  5
36
330
17
100
AcDbEntity
  8
CELLS
100
AcDbPolyline
 90
28
 70
1
 10
22.294073070641048
 20
381.2692196678331
 10
19.959458227597036
 20
379.42648160772234
 10
17.186124253168167
 20
378.35189857704444
 10
14.219403322052699
 20
378.1405293729876
 10
11.321734831908557
 20
378.8110719478984
 10
8.749449725491425
 20
380.3042093678457
 10
7.329547954480734
 20
381.69408566544246
 10
5.781782565345209
 20
384.23387548425353
 10
5.0494708326886
 20
387.11655298091455
 10
5.048152733278032
 20
440.76696796769914
 10
5.430596642677912
 20
442.68964333694817
 10
6.180787356516451
 20
444.5007639326635
 10
7.928932188134525
 20
446.857864376269
 10
9.44429766980398
 20
448.10149268742896
 10
11.173165676349104
 20
449.02559188951636
 10
14.019828596704393
 20
449.7386438311255
 10
15.980171403295607
 20
449.7386438311255
 10
17.902846772544624
 20
449.3561999217256
 10
20.55570233019602
 20
448.10149268742896
 10
22.071067811865476
 20
446.857864376269
 10
47.72718418318924
 20
421.1363987858832
 10
49.21763538785226
 20
418.67774355067155
 10
49.94692775661737
 20
415.89663531833395
 10
49.97770852002391
 20
413.9764213773211
 10
49.64085617502068
 20
412.08573379542884
 10
48.9487944054886
 20
410.29430432659456
 10
47.927047619312255
 20
408.6682039177654
 10
22.294073070641048
 20
381.2692196678331
  0
LWPOLYLINE
  5
37
330
17
100
AcDbEntity
  8
CELLS
100
AcDbPolyline
 90
40
 70
1
 10
79.66758278298879
 20
79.50191196823869
 10
102.47025030137095
 20
79.5
 10
104.4028273066101
 20
79.31148032250083
 10
107.14297674459115
 20
78.34113270949095
 10
109.48828110499946
 20
76.62370996316677
 10
111.24056232340737
 20
74.30433419280168
 10
112.2517527519398
 20
71.57899249866747
 10
112.43640686579523
 20
68.67797607493284
 10
111.77892140447999
 20
65.8464206188803
 10
96.27052607475323
 20
26.468116260702672
 10
95.19881750242621
 20
24.804346300919505
 10
93.82044217781568
 20
23.384215600039862
 10
92.18938678588174
 20
22.26334627156337
 10
89.41087024457735
 20
21.235552023711676
 10
87.44302246209918
 20
21.025159894410592
 10
84.5100201391176
 20
21.442308021103898
 10
82.67886539135309
 20
22.193015709099413
 10
80.29708931612294
 20
23.954735866695497
 10
49.6573390011972
 20
54.60243540734496
 10
48.97714070211011
 20
55.35565197307457
 10
47.86247134815182
 20
57.04885096133787
 10
47.439481442478936
 20
57.97139335097062
 10
46.883930382536
 20
59.92095063463939
 10
46.75709143152186
 20
60.92788499271647
 10
46.81180546812112
 20
62.95431460084715
 10
47.274071056647955
 20
64.92807271879717
 10
48.12489180608813
 20
66.76804952159434
 10
60.89556790692536
 20
88.33319568186612
 10
62.70941455568723
 20
90.57857336079344
 10
64.24440122113296
 20
91.74529830555593
 10
66.89332433722068
 20
92.8920183722269
 10
69.75942942879122
 20
93.23436642658564
 10
72.60391948146459
 20
92.74381884837128
 10
74.37052421261457
 20
91.97145955134317
 10
75.95607055903788
 20
90.87442995139115
 10
77.86835699998335
 20
88.71227335344874
 10
79.08341197068751
 20
86.09399109127439
 10
79.45342364264896
 20
84.20176422262477
 10
79.50191196823869
 20
79.66758278298879
 10
79.66758278298879
 20
79.50191196823869
  0
LWPOLYLINE
  5
38
330
17
100
AcDbEntity
  8
CELLS
100
AcDbPolyline
 90
33
 70
1
 10
167.51646078337896
 20
293.63288659022436
 10
169.47302923065587
 20
294.06706147331624
 10
171.47688096386995
 20
294.10236231299984
 10
172.47137127890684
 20
293.9693600272555
 10
173.44752791332917
 20
293.73737119177275
 10
175.30581573523776
 20
292.9867485909049
 10
176.97710317882928
 20
291.8806445275904
 10
230.10499099602552
 20
238.82394119210895
 10
231.8460233368831
 20
236.48012320422976
 10
232.8358526581253
 20
233.7333224675495
 10
232.9900992134789
 20
230.81769485545985
 10
232.29561398328474
 20
227.98178818611046
 10
230.8115995858697
 20
225.46735432528158
 10
229.44362289870375
 20
224.0772138275159
 10
227.83183079637652
 20
222.97904396859914
 10
187.13848470941804
 20
200.72617058835567
 10
185.2981648312739
 20
199.94737340857162
 10
182.34057709720156
 20
199.5
 10
133.7840313246883
 20
199.5
 10
131.83588835341814
 20
199.6915985520835
 10
129.9623976566574
 20
200.25905220730186
 10
127.44771560648275
 20
201.7636505301776
 10
126.06196701390553
 20
203.14628275887767
 10
124.55171096066546
 20
205.65757099010938
 10
123.98004077525493
 20
207.52977937615577
 10
117.75028757782941
 20
268.9620090321691
 10
117.74317005253695
 20
270.8909033840055
 10
118.42341687081645
 20
273.6973757298771
 10
119.31292720914469
 20
275.4089409310073
 10
120.51449566090307
 20
276.91788670056025
 10
121.98341566000018
 20
278.1680699335167
 10
123.66503333388587
 20
279.1129752613607
 10
167.51646078337896
 20
293.63288659022436
  0
LWPOLYLINE
  5
39
330
17
100
AcDbEntity
  8
CELLS
100
AcDbPolyline
 90
31
 70
1
 10
199.48221203532972
 20
199.493608913854
 10
199.33641827172036
 20
202.4005137650309
 10
200.03484013611344
 20
205.22836765839853
 10
201.51855465905186
 20
207.73498728596837
 10
203.66167532895724
 20
209.70769723350782
 10
233.86236712573745
 20
226.22109552338543
 10
236.72453640839905
 20
226.9615211005319
 10
239.67811936408697
 20
226.83271596952312
 10
242.46496566414794
 20
225.84593801185446
 10
244.84149816886384
 20
224.08743401927063
 10
285.1348505210223
 20
183.7940816671121
 10
286.35204856659936
 20
182.318069625867
 10
287.26588094509515
 20
180.63726832527553
 10
287.9979980969392
 20
177.86816215531425
 10
287.915117731408
 20
175.00510865432076
 10
287.4076736518116
 20
173.16047233945005
 10
286.5582260991476
 20
171.44623155025786
 10
285.397866405173
 20
169.92513063031325
 10
216.83408369601614
 20
95.95320374283008
 10
215.34133811435802
 20
94.63451324273956
 10
213.61685298058725
 20
93.63782621563803
 10
210.74712176467497
 20
92.82915735180296
 10
208.75596666947735
 20
92.77880466113618
 10
206.79432911758857
 20
93.12407574537096
 10
204.9400318610532
 20
93.85127289263862
 10
203.26663921121573
 20
94.93154649041782
 10
201.8405385703443
 20
96.32203955717324
 10
200.7183066880317
 20
97.96758797910134
 10
199.94446512914587
 20
99.80290899961246
 10
199.54971399916803
 20
101.75519113905082
 10
199.48221203532972
 20
199.493608913854
  0
LWPOLYLINE
  5
3A
330
17
100
AcDbEntity
  8
CELLS
100
AcDbPolyline
 90
30
 70
1
 10
326.49493213075215
 20
44.273916133323986
 10
324.97685150434603
 20
41.73098549672102
 10
323.57716697470534
 20
40.332725624814245
 10
321.9295947429123
 20
39.2373931670989
 10
320.09862486306804
 20
38.487862146390945
 10
318.1559260270395
 20
38.11347106156964
 10
315.1991929313819
 20
38.28316022411802
 10
270.9443068301958
 20
47.578417309690025
 10
268.2923493689139
 20
48.867946436088324
 10
266.78470902653794
 20
50.13582888714584
 10
265.0595079646931
 20
52.52736501283742
 10
264.33195652316516
 20
54.357986276668285
 10
263.9773819991149
 20
56.29571231988329
 10
264.009543675782
 20
58.2653495804501
 10
264.77608286267866
 20
61.11283644068845
 10
265.73705881529156
 20
62.832438292908584
 10
300.66123585886555
 20
112.98725303743412
 10
302.69460411622936
 20
115.14008595083946
 10
304.3640880983302
 20
116.20134417604359
 10
306.2098180585263
 20
116.91319156213791
 10
308.15956235544985
 20
117.24777034758107
 10
310.13701880305473
 20
117.19198697298974
 10
312.98633017426084
 20
116.38532673905499
 10
315.4744665287823
 20
114.77957037384735
 10
317.38323632186007
 20
112.51553108529029
 10
318.2486497906711
 20
110.73662543431969
 10
334.0044762379659
 20
67.9402265312679
 10
334.34101538138447
 20
65.18242011192142
 10
333.9058031500784
 20
62.43845488703915
 10
326.49493213075215
 20
44.273916133323986
  0
LWPOLYLINE
  5
3B
330
17
100
AcDbEntity
  8
CELLS
100
AcDbPolyline
 90
30
 70
1
 10
66.83179191583645
 20
279.9005490568806
 10
66.55210160376016
 20
281.8691276887875
 10
66.66742290862659
 20
283.85412882161177
 10
67.56683975785182
 20
286.691340453871
 10
68.61617569289507
 20
288.3802521141116
 10
69.97891948749213
 20
289.82816711540033
 10
72.48994752091204
 20
291.42612166114833
 10
75.36006582610763
 20
292.2142469234503
 10
77.34805374287207
 20
292.25209587942453
 10
80.24609118430733
 20
291.5737895305403
 10
111.30765957804306
 20
279.19292820769743
 10
113.86880699846684
 20
277.69885905956426
 10
115.87926154536495
 20
275.5194574803679
 10
117.1622697098089
 20
272.8463303269169
 10
117.55479516183118
 20
270.9048292388056
 10
123.68301669220398
 20
209.51986525727685
 10
123.2571126631524
 20
206.6126025282073
 10
122.50867888139759
 20
204.79808175231335
 10
120.76112417998111
 20
202.43595910872426
 10
119.2449312249451
 20
201.18944489102685
 10
116.58944734695554
 20
199.93167854088995
 10
114.6644434202357
 20
199.54827450604446
 10
93.46156574880702
 20
199.54509660829586
 10
91.59845300558553
 20
199.90343269829316
 10
89.83655157327749
 20
200.6072062344394
 10
87.52064268634753
 20
202.2519615333523
 10
86.2757010371237
 20
203.6836438086413
 10
85.32356815117973
 20
205.32469128353438
 10
84.69851694529663
 20
207.11603291409315
 10
66.83179191583645
 20
279.9005490568806
  0
LWPOLYLINE
  5
3C
330
17
100
AcDbEntity
  8
CELLS
100
AcDbPolyline
 90
34
 70
1
 10
229.72822266867436
 20
5.000000000000002
 10
227.78359079137442
 20
5.1909018323910665
 10
225.91320567181504
 20
5.756318627642212
 10
223.40160435612992
 20
7.255718191634729
 10
222.01640293186617
 20
8.633852315020045
 10
220.9256416113677
 20
10.255048290072324
 10
220.17096606159134
 20
12.057408260331059
 10
219.78119007159975
 20
13.972117461606123
 10
219.7711954315352
 20
15.926071594893621
 10
220.14136374041817
 20
17.844667975303018
 10
225.35655548302677
 20
35.42046520516055
 10
226.07868699850243
 20
37.20360533922177
 10
227.12890763045965
 20
38.815467395216146
 10
228.46834805520632
 20
40.19639534840468
 10
230.9088712272478
 20
41.72579511489312
 10
255.55664434794977
 20
49.855928376424444
 10
257.63996957965475
 20
50.08388870777502
 10
259.72505479524887
 20
49.87263157194548
 10
317.53208540561565
 20
37.74373822821177
 10
318.4776702378474
 20
37.39059431798178
 10
320.23836637356163
 20
36.40828381364615
 10
321.76623385679704
 20
35.092758913494535
 10
322.9991651064547
 20
33.49749550487998
 10
323.88704165452765
 20
31.68734080303013
 10
324.18971343285466
 20
30.724412409594958
 10
326.4320068117185
 20
16.5247802491673
 10
326.5415408924643
 20
14.615433461342398
 10
326.28558525022623
 20
12.720152590276424
 10
325.67350172592336
 20
10.908259483523423
 10
324.1399790535217
 20
8.490307322602437
 10
321.9841288510554
 20
6.6060317738043075
 10
319.38269169435716
 20
5.409909221963618
 10
316.5489381996047
 20
5.000000000000002
 10
229.72822266867436
 20
5.000000000000002
  0
LWPOLYLINE
  5
3D
330
17
100
AcDbEntity
  8
CELLS
100
AcDbPolyline
 90
33
 70
1
 10
102.56477762103133
 20
5.0
 10
100.63220061579217
 20
5.188519677499176
 10
98.77248936930702
 20
5.746970776235823
 10
96.2715242885599
 20
7.228580406815147
 10
94.88827781704032
 20
8.591306626204835
 10
93.36945704890529
 20
11.069849929603741
 10
92.78327517046247
 20
12.921007501332515
 10
92.5658944295074
 20
14.850551272135691
 10
92.72551093547591
 20
16.78572984813479
 10
93.25610651792229
 20
18.65357938111969
 10
114.6469231087586
 20
73.15357938111968
 10
115.55541713104333
 20
74.92558983068145
 10
116.79701029869811
 20
76.4824548948139
 10
119.17312091381434
 20
78.28225194089804
 10
121.00808587424709
 20
79.05574144688194
 10
122.95993081218339
 20
79.4503092612506
 10
141.90246861154597
 20
79.45418107245064
 10
143.77985895035835
 20
79.09014505335902
 10
146.38115823765943
 20
77.89417642889329
 10
148.53695592836792
 20
76.01012885795575
 10
150.07053915298494
 20
73.59243958387755
 10
157.5096574486124
 20
51.720274493726826
 10
158.02803659394158
 20
48.91559874114296
 10
157.92192154888642
 20
47.013491873249635
 10
157.45701610926287
 20
45.16602499347008
 10
156.6501929530881
 20
43.440247680392226
 10
155.53073387870378
 20
41.898793068523105
 10
154.13926708897807
 20
40.59760472213953
 10
110.63564963520145
 20
7.078576640048138
 10
109.05149902669179
 20
6.079422079053845
 10
107.3088215086238
 20
5.393187385076926
 10
105.46874747210447
 20
5.043944593705763
 10
102.56477762103133
 20
5.0
  0
LWPOLYLINE
  5
3E
330
17
100
AcDbEntity
  8
CELLS
100
AcDbPolyline
 90
40
 70
1
 10
45.70646227132976
 20
309.8132540848637
 10
47.753269393986656
 20
309.4716339181896
 10
48.73906600679804
 20
309.1435348933749
 10
49.68549981348087
 20
308.71492436914275
 10
51.41994929709135
 20
307.5757102872245
 10
60.298741897123115
 20
300.2658645460917
 10
61.486236289693196
 20
298.8600762674186
 10
62.73675655246362
 20
296.404749053767
 10
83.90661106608671
 20
210.34205705415707
 10
84.18809902108016
 20
208.3277147903824
 10
84.17387920179908
 20
207.3095359224243
 10
84.05618864091304
 20
206.29808184917374
 10
83.51633680767918
 20
204.33712029356147
 10
83.09977320722066
 20
203.40794583352186
 10
81.99492239226187
 20
201.7002822539137
 10
80.5674007971634
 20
200.25149230365773
 10
79.51717664546528
 20
199.48740208580455
 10
79.45026556921101
 20
191.83239177570914
 10
78.71410384473282
 20
188.94258251800338
 10
77.15853816497847
 20
186.39834450899576
 10
75.73191701184089
 20
185.0078005527989
 10
73.14867811415802
 20
183.51789839896236
 10
71.23064136488632
 20
182.97938615477614
 10
68.24941820470637
 20
182.9069976217389
 10
65.37940842856547
 20
183.7169207757259
 10
10.879408428565476
 20
208.3638496069439
 10
8.472311214420092
 20
209.899849345388
 10
7.152779208420328
 20
211.27694284870498
 10
5.72089435686536
 20
213.74739178902618
 10
5.181877561586777
 20
215.5768759037818
 10
5.0
 20
217.47542055280294
 10
5.0
 20
301.68322524312856
 10
5.183806725388978
 20
303.59171930795594
 10
5.7284699190962645
 20
305.43005456388727
 10
7.1748154736105905
 20
307.90949917927657
 10
9.265921885535413
 20
309.87592615169456
 10
11.829491165150188
 20
311.167310529973
 10
13.697799297851173
 20
311.5980763933639
 10
15.613978079924397
 20
311.664358992226
 10
45.70646227132976
 20
309.8132540848637
  0
LWPOLYLINE
  5
3F
330
17
100
AcDbEntity
  8
CELLS
100
AcDbPolyline
 90
33
 70
1
 10
58.24933048043562
 20
301.9952661518915
 10
56.86836220967541
 20
303.3686084723004
 10
55.77978580092905
 20
304.98358336256763
 10
55.02489250853496
 20
306.77893252386497
 10
54.57710689922404
 20
309.6599500507789
 10
54.751463422042946
 20
311.59972898066326
 10
55.29850879434165
 20
313.4689223506812
 10
56.197492805642746
 20
315.19662899282207
 10
57.41431571140044
 20
316.71731453227335
 10
101.77239906746263
 20
354.20829463312225
 10
103.40328733276053
 20
355.32833940464593
 10
105.22276596272869
 20
356.1053814493212
 10
108.14846088593232
 20
356.56525578610405
 10
110.11858784109762
 20
356.38388157449987
 10
112.0144483664063
 20
355.81818758241565
 10
113.76183285352677
 20
354.8903167518176
 10
115.29234348697477
 20
353.63658870115967
 10
161.88601314937864
 20
307.0429190387558
 10
163.116804106987
 20
305.54671812859397
 10
164.03598782213408
 20
303.8412666216
 10
164.6090630691612
 20
301.9905780183649
 10
164.81451967758642
 20
300.0641172409407
 10
164.4204053127598
 20
297.1906395010531
 10
163.2182604002683
 20
294.55112286659846
 10
161.3092117799005
 20
292.36760876788884
 10
158.85385244836976
 20
290.82377878785314
 10
120.40285360141482
 20
278.08555696549956
 10
117.46495941466601
 20
277.58377116584006
 10
115.48026492178232
 20
277.74315199274685
 10
113.56648759388733
 20
278.2925797107439
 10
63.63220052042491
 20
298.1959366718252
 10
61.82817438222008
 20
299.1379445924641
 10
58.24933048043562
 20
301.9952661518915
  0
LWPOLYLINE
  5
40
330
17
100
AcDbEntity
  8
CELLS
100
AcDbPolyline
 90
38
 70
1
 10
311.3978771923482
 20
132.1853454375368
 10
311.1632974745796
 20
129.33493810518863
 10
310.5600688455095
 20
127.52234146666699
 10
309.62316327582636
 20
125.85752937324428
 10
259.00042013321143
 20
53.157912113552165
 10
257.81720363393754
 20
51.75371348590233
 10
255.613057510718
 20
50.1100786815972
 10
253.92965673883955
 20
49.37663685616953
 10
235.11115033190126
 20
43.21096739802626
 10
233.20639286931325
 20
42.96845177039678
 10
230.3503165833739
 20
43.29473136985191
 10
228.54933257275587
 20
43.96059277767445
 10
226.16792210023183
 20
45.57072143386264
 10
224.34295718735282
 20
47.791787212916944
 10
223.5122225462227
 20
49.52291250501905
 10
211.532663940229
 20
82.21224617997066
 10
211.0365710438175
 20
84.14395473570667
 10
210.93368289428867
 20
86.13569270413029
 10
211.22809197696074
 20
88.1082365941905
 10
211.9080878581842
 20
89.98312637966933
 10
213.58794951743144
 20
92.45102240689344
 10
284.8820106565763
 20
169.3685854367444
 10
286.38758912882065
 20
170.69649613342048
 10
287.2326577255234
 20
171.24049802163185
 10
288.128062968452
 20
171.69692812410813
 10
290.03328910682905
 20
172.32956286554864
 10
292.0264847709168
 20
172.5689044605424
 10
294.02732191607697
 20
172.40530717150688
 10
295.00532996813183
 20
172.1738352776915
 10
296.8672315442479
 20
171.42321162013135
 10
298.54168701927006
 20
170.31582179870412
 10
299.28716216445787
 20
169.64177002367654
 10
307.0603446599095
 20
161.868587528225
 10
308.36191487014486
 20
160.26551135414323
 10
309.30648096672206
 20
158.42928339409102
 10
309.6316549269951
 20
157.44790553404056
 10
309.970443863361
 20
155.41095676475922
 10
311.3978771923482
 20
132.1853454375368
  0
LWPOLYLINE
  5
41
330
17
100
AcDbEntity
  8
CELLS
100
AcDbPolyline
 90
30
 70
1
 10
66.32786629884754
 20
135.61324085487422
 10
69.26199854899491
 20
136.12686627628747
 10
72.21724853255016
 20
135.75344872237017
 10
74.93139859897894
 20
134.526121320337
 10
77.16362375629183
 20
132.55378413264918
 10
78.71585993563804
 20
130.01144151639826
 10
79.45037810350519
 20
127.12467408621795
 10
79.44288273171802
 20
121.42105387878715
 10
78.98985199073059
 20
119.33512600828546
 10
78.10443209307464
 20
117.39286867774189
 10
47.752377977027066
 20
66.13900567873172
 10
46.54011619735721
 20
64.49979636133472
 10
45.0205925154862
 20
63.14051949883661
 10
43.25696723713438
 20
62.1176746004048
 10
42.30620944320491
 20
61.746299115485215
 10
40.31622817579755
 20
61.30294782806484
 10
38.27768625244192
 20
61.27240874800256
 10
13.118755985280977
 20
66.03842058967668
 10
11.229440544669632
 20
66.59796782259905
 10
8.69140275617033
 20
68.10090361333677
 10
7.292456936636999
 20
69.48854785233095
 10
5.768983873558028
 20
72.01431142658005
 10
5.194130297000175
 20
73.89902607488153
 10
5.0
 20
75.85987266954164
 10
5.046045113547052
 20
108.85861848884255
 10
5.7282724101179845
 20
111.6464278067219
 10
7.17424110280902
 20
114.12563925732445
 10
9.264842197379759
 20
116.0920323869964
 10
11.827866298847535
 20
117.38362920192615
 10
66.32786629884754
 20
135.61324085487422
  0
LWPOLYLINE
  5
42
330
17
100
AcDbEntity
  8
CELLS
100
AcDbPolyline
 90
30
 70
1
 10
73.62059157143453
 20
179.98995097008688
 10
76.02768878557991
 20
178.45395123164278
 10
77.34722079157967
 20
177.0768577283258
 10
78.77910564313464
 20
174.6064087880046
 10
79.45442676360955
 20
171.8319982958302
 10
79.45395488645295
 20
146.2603347049574
 10
79.08813425614792
 20
144.37849949955785
 10
78.3699373736854
 20
142.60105140977882
 10
77.32575889719098
 20
140.99331393647552
 10
75.99397372717198
 20
139.6143734973138
 10
74.42352667962211
 20
138.51490792501068
 10
72.67213370115246
 20
137.7353239918738
 10
17.212804092465753
 20
119.23715204440438
 10
14.242127108685583
 20
119.01801420441413
 10
11.33869575558639
 20
119.68361882633124
 10
9.56860140102106
 20
120.59283187346294
 10
7.336376243708164
 20
122.56516906115077
 10
6.216094661547476
 20
124.20981843588392
 10
5.443647156743841
 20
126.04372880486632
 10
5.0
 20
128.9892542817872
 10
5.0
 20
195.52530885544581
 10
5.444646581525431
 20
198.47407487669037
 10
6.218797370998615
 20
200.30970854489686
 10
7.341461835021538
 20
201.95545606803498
 10
8.768082988159104
 20
203.34600002423187
 10
11.351321885841982
 20
204.8359021780684
 10
13.269358635113669
 20
205.37441442225463
 10
15.256082124332833
 20
205.5220294149892
 10
18.192494511201218
 20
205.0020160259745
 10
73.62059157143453
 20
179.98995097008688
  0
LWPOLYLINE
  5
43
330
17
100
AcDbEntity
  8
CELLS
100
AcDbPolyline
 90
36
 70
1
 10
46.865137860549936
 20
407.46838222718816
 10
48.37249861577146
 20
408.7831947814351
 10
50.1113781211592
 20
409.77171213835396
 10
52.01220609434327
 20
410.3943850184028
 10
53.998932907720814
 20
410.62630109847066
 10
54.99971657535975
 20
410.5922005410813
 10
56.96604922798333
 20
410.22558848670553
 10
58.82008397136744
 20
409.47497295961324
 10
60.4876433135
 20
408.3703850999779
 10
101.75348106524737
 20
367.108461585782
 10
102.83630344325483
 20
365.49352475173305
 10
103.82681212672618
 20
362.7564638331992
 10
103.98714583396998
 20
359.8501082069691
 10
103.3037201153951
 20
357.0207020482517
 10
101.83443896625528
 20
354.5079699040349
 10
100.47735051634899
 20
353.11554891187313
 10
51.98671056847136
 20
312.19975523131114
 10
49.56981572433138
 20
310.69140210142854
 10
46.825664683123236
 20
309.9258010858249
 10
44.9238558809003
 20
309.86139522604174
 10
14.386021920075608
 20
311.739895317478
 10
13.386480098590937
 20
311.8520598434115
 10
11.446313564973194
 20
312.3737667549942
 10
10.525316833437223
 20
312.7780312158053
 10
8.827989175730817
 20
313.8529745176349
 10
8.068829514889993
 20
314.51277853636077
 10
6.767841584667236
 20
316.0437438152545
 10
5.799138495469565
 20
317.80386841446403
 10
5.452183910617892
 20
318.7479485222013
 10
5.050583236688739
 20
320.71648634974315
 10
5.0
 20
358.8736550789417
 10
5.176827316515725
 20
360.74589396072156
 10
5.701055686089671
 20
362.55192024703314
 10
6.554145529555198
 20
364.2278629815233
 10
7.705926929358956
 20
365.71445167291733
 10
46.865137860549936
 20
407.46838222718816
  0
LWPOLYLINE
  5
44
330
17
100
AcDbEntity
  8
CELLS
100
AcDbPolyline
 90
34
 70
1
 10
341.9830375779719
 20
65.11527780966554
 10
339.98283757399184
 20
65.33333490437298
 10
339.00932407468554
 20
65.59204815791757
 10
337.16475916758645
 20
66.39574539940389
 10
336.3124238420178
 20
66.93257458422806
 10
335.518419056942
 20
67.55242737495178
 10
334.1369533353756
 20
69.01526756192067
 10
333.0762885559551
 20
70.72504508492504
 10
311.82872810076196
 20
128.26080239311037
 10
311.52099895145597
 20
130.1820447825144
 10
311.34540353964894
 20
133.80076500280975
 10
311.59960809037244
 20
135.7150084540191
 10
312.21699569986583
 20
137.54470254969485
 10
313.1745443055577
 20
139.22161894947277
 10
314.43654741840214
 20
140.683226313739
 10
316.7947816237593
 20
142.35541144963088
 10
318.5916095319537
 20
143.06277091442965
 10
321.4568997509133
 20
143.44693709871572
 10
323.37659778663186
 20
143.23787396048996
 10
326.0920254155855
 20
142.2459442815663
 10
328.41023419625554
 20
140.51869799187892
 10
387.03917051859855
 20
81.8897616695359
 10
388.79191656384563
 20
79.52404283676103
 10
389.5422200521969
 20
77.70595502619818
 10
389.9221585180882
 20
75.7761764446802
 10
389.9170344271802
 20
73.80935862006052
 10
389.5270459997344
 20
71.88158590575841
 10
388.76727954266335
 20
70.06743223468777
 10
387.6671258510434
 20
68.43707630227168
 10
386.2691432550061
 20
67.053586774763
 10
384.62741129388627
 20
65.97048254183485
 10
382.8054387040732
 20
65.22966239259544
 10
379.88994558792643
 20
64.81899928909586
 10
341.9830375779719
 20
65.11527780966554
  0
LWPOLYLINE
  5
45
330
17
100
AcDbEntity
  8
CELLS
100
AcDbPolyline
 90
38
 70
1
 10
393.32583755245474
 20
64.71398502117563
 10
395.224682236307
 20
64.51691580871274
 10
397.9168788913157
 20
63.557286877055525
 10
399.51225406908674
 20
62.508847346111224
 10
400.8793201553854
 20
61.17633928850452
 10
401.96825514566535
 20
59.60832525960084
 10
402.73937337689966
 20
57.86195070603199
 10
403.1645718506983
 20
56.00086132994765
 10
403.2283544323045
 20
54.09288355487311
 10
402.9283965990763
 20
52.20755262737531
 10
392.6447241539464
 20
12.493262174774248
 10
392.34145893526073
 20
11.526757460032698
 10
391.4503612443818
 20
9.710216600209993
 10
390.8716723359001
 20
8.878820001899445
 10
389.4776431315587
 20
7.412341782648092
 10
387.8169537950413
 20
6.256492866192076
 10
385.9575908850442
 20
5.458592271492268
 10
383.97567440958983
 20
5.051305057824107
 10
382.96400798851823
 20
5.0
 10
336.78556791953366
 20
5.0
 10
334.77406964939416
 20
5.204395133059627
 10
332.84479947056957
 20
5.809225058154816
 10
331.07662407004165
 20
6.7897649166819125
 10
329.54182473706305
 20
8.105931193670132
 10
328.30314257441063
 20
9.703920292856761
 10
327.81120245648845
 20
10.588564345283762
 10
327.1072745999536
 20
12.483924003498217
 10
326.9024993074198
 20
13.475219750832704
 10
323.7615573363596
 20
33.833658301967326
 10
323.7144568000284
 20
36.538159146559714
 10
324.3939013871135
 20
39.156345223217436
 10
332.50571980261697
 20
58.91465008236168
 10
333.43450547603896
 20
60.66159085141066
 10
335.42358196772767
 20
62.855919973077505
 10
337.9681458381293
 20
64.37140679038411
 10
339.8643409886277
 20
64.93610921551252
 10
341.83460148278357
 20
65.11643797885344
 10
393.32583755245474
 20
64.71398502117563
  0
LWPOLYLINE
  5
46
330
17
100
AcDbEntity
  8
CELLS
100
AcDbPolyline
 90
37
 70
1
 10
199.33241721701134
 20
79.50191196823872
 10
201.15801662837768
 20
80.38990681344886
 10
203.08175757523279
 20
80.95899144054233
 10
205.08037782348407
 20
81.13263949460895
 10
207.07344017225657
 20
80.90386227260787
 10
208.9807311059288
 20
80.2818672262187
 10
210.7254890965953
 20
79.29168739537656
 10
212.23749397656974
 20
77.97317391939892
 10
212.88676161202986
 20
77.20691392635491
 10
213.93914743030064
 20
75.49895589616106
 10
214.33165016748094
 20
74.57448608015746
 10
225.97876640501894
 20
42.6710305532413
 10
226.31353861571043
 20
39.95853729512669
 10
226.12101968826462
 20
38.14349372661514
 10
222.07954279039942
 20
24.54586922128354
 10
220.58591515751556
 20
22.019394861261176
 10
219.20794043138602
 20
20.624742918070737
 10
217.58433396895205
 20
19.525756820051654
 10
215.7775050657767
 20
18.764680146419654
 10
213.85690584690335
 20
18.370767682844694
 10
211.89636161857598
 20
18.359160905992486
 10
209.9712331206298
 20
18.73030596508937
 10
208.15551975883525
 20
19.46993653253326
 10
163.32855384903647
 20
43.09371322321526
 10
161.74182939812763
 20
44.13329241011979
 10
160.37996739517607
 20
45.45380414951246
 10
158.86333750933153
 20
47.85502572518147
 10
152.31162169574893
 20
67.25882919271984
 10
152.0841955225309
 20
70.23369255587502
 10
152.4278051604968
 20
72.1970184116219
 10
153.15396505447254
 20
74.05319938543032
 10
154.23382693417076
 20
75.72849467878068
 10
155.624490953928
 20
77.15634956752109
 10
157.27070998173699
 20
78.28003943204195
 10
159.10708441089892
 20
79.05492326531463
 10
162.0572439648806
 20
79.5
 10
199.33241721701134
 20
79.50191196823872
  0
LWPOLYLINE
  5
47
330
17
100
AcDbEntity
  8
CELLS
100
AcDbPolyline
 90
31
 70
1
 10
154.70971328353235
 20
41.03712683854523
 10
157.18657028286262
 20
42.43495490086924
 10
159.95676614443212
 20
43.07897258346424
 10
161.85631145443708
 20
43.061137729374465
 10
164.61392664008096
 20
42.365219361418774
 10
200.69696367291928
 20
23.345918875844028
 10
202.2224102310918
 20
22.107809639142175
 10
203.47634612980025
 20
20.595345938494454
 10
204.41037067617603
 20
18.866907385749727
 10
204.98843144102605
 20
16.98921000970965
 10
205.18821584715423
 20
15.034731083009548
 10
205.00201241290432
 20
13.078911570651538
 10
204.43700840777035
 20
11.197244182926134
 10
203.51501243086025
 20
9.46235943101655
 10
202.27161262041182
 20
7.941222160674537
 10
199.91181266908404
 20
6.1859088474808
 10
198.0973539990342
 20
5.432489031888089
 10
195.18827615974246
 20
4.999999999999998
 10
137.3010997715586
 20
4.999999999999998
 10
134.36297527615002
 20
5.441369112185567
 10
131.68421026074728
 20
6.7265151101039695
 10
130.16082253452265
 20
7.998825742900966
 10
128.91872492407492
 20
9.546946551126307
 10
128.00684967237603
 20
11.309889555332413
 10
127.46111996372387
 20
13.218203888935404
 10
127.30303473546132
 20
15.196711804346757
 10
127.53882173066957
 20
17.16747028869507
 10
128.159192157194
 20
19.052841616745347
 10
129.13970661817254
 20
20.7785518770591
 10
131.19773578500093
 20
22.92142335995186
 10
154.70971328353235
 20
41.03712683854523
  0
ENDSEC
  0
SECTION
  2
OBJECTS
  0
DICTIONARY
  5
A
330
0
100
AcDbDictionary
281
1
  3
ACAD_COLOR
350
B
  3
ACAD_GROUP
350
C
  3
ACAD_LAYOUT
350
D
  3
ACAD_MATERIAL
350
E
  3
ACAD_MLEADERSTYLE
350
F
  3
ACAD_MLINESTYLE
350
10
  3
ACAD_PLOTSETTINGS
350
11
  3
ACAD_PLOTSTYLENAME
350
12
  3
ACAD_SCALELIST
350
14
  3
ACAD_TABLESTYLE
350
15
  3
ACAD_VISUALSTYLE
350
16
  3
EZDXF_META
350
2D
  0
DICTIONARY
  5
B
330
A
100
AcDbDictionary
281
1
  0
DICTIONARY
  5
C
330
A
100
AcDbDictionary
281
1
  0
DICTIONARY
  5
D
330
A
100
AcDbDictionary
281
1
  3
Model
350
1A
  3
Layout1
350
1E
  0
DICTIONARY
  5
E
330
A
100
AcDbDictionary
281
1
  3
ByBlock
350
1F
  3
ByLayer
350
20
  3
Global
350
21
  0
DICTIONARY
  5
F
330
A
100
AcDbDictionary
281
1
  3
Standard
350
2C
  0
DICTIONARY
  5
10
330
A
100
AcDbDictionary
281
1
  3
Standard
350
22
  0
DICTIONARY
  5
11
330
A
100
AcDbDictionary
281
1
  0
ACDBDICTIONARYWDFLT
  5
12
330
A
100
AcDbDictionary
281
1
  3
Normal
350
13
100
AcDbDictionaryWithDefault
340
13
  0
ACDBPLACEHOLDER
  5
13
330
12
  0
DICTIONARY
  5
14
330
A
100
AcDbDictionary
281
1
  0
DICTIONARY
  5
15
330
A
100
AcDbDictionary
281
1
  0
DICTIONARY
  5
16
330
A
100
AcDbDictionary
281
1
  0
LAYOUT
  5
1A
330
D
100
AcDbPlotSettings
  1

  4
A3
  6

 40
7.5
 41
20.0
 42
7.5
 43
20.0
 44
420.0
 45
297.0
 46
0.0
 47
0.0
 48
0.0
 49
0.0
140
0.0
141
0.0
142
1.0
143
1.0
 70
1024
 72
1
 73
0
 74
5
  7

 75
16
 76
0
 77
2
 78
300
147
1.0
148
0.0
149
0.0
100
AcDbLayout
  1
Model
 70
1
 71
0
 10
0.0
 20
0.0
 11
420.0
 21
297.0
 12
0.0
 22
0.0
 32
0.0
 14
1e+20
 24
1e+20
 34
1e+20
 15
-1e+20
 25
-1e+20
 35
-1e+20
146
0.0
 13
0.0
 23
0.0
 33
0.0
 16
1.0
 26
0.0
 36
0.0
 17
0.0
 27
1.0
 37
0.0
 76
1
330
17
  0
LAYOUT
  5
1E
330
D
100
AcDbPlotSettings
  1

  4
A3
  6

 40
7.5
 41
20.0
 42
7.5
 43
20.0
 44
420.0
 45
297.0
 46
0.0
 47
0.0
 48
0.0
 49
0.0
140
0.0
141
0.0
142
1.0
143
1.0
 70
0
 72
1
 73
0
 74
5
  7

 75
16
 76
0
 77
2
 78
300
147
1.0
148
0.0
149
0.0
100
AcDbLayout
  1
Layout1
 70
1
 71
1
 10
0.0
 20
0.0
 11
420.0
 21
297.0
 12
0.0
 22
0.0
 32
0.0
 14
1e+20
 24
1e+20
 34
1e+20
 15
-1e+20
 25
-1e+20
 35
-1e+20
146
0.0
 13
0.0
 23
0.0
 33
0.0
 16
1.0
 26
0.0
 36
0.0
 17
0.0
 27
1.0
 37
0.0
 76
1
330
1B
  0
MATERIAL
  5
1F
102
{ACAD_REACTORS
330
E
102
}
330
E
100
AcDbMaterial
  1
ByBlock
  2

 70
0
 40
1.0
 71
1
 41
1.0
 91
-1023410177
 42
1.0
 72
1
  3

 73
1
 74
1
 75
1
 44
0.5
 73
0
 45
1.0
 46
1.0
 77
1
  4

 78
1
 79
1
170
1
 48
1.0
171
1
  6

172
1
173
1
174
1
140
1.0
141
1.0
175
1
  7

176
1
177
1
178
1
143
1.0
179
1
  8

270
1
271
1
272
1
145
1.0
146
1.0
273
1
  9

274
1
275
1
276
1
 42
1.0
 72
1
  3

 73
1
 74
1
 75
1
 94
63
  0
MATERIAL
  5
20
102
{ACAD_REACTORS
330
E
102
}
330
E
100
AcDbMaterial
  1
ByLayer
  2

 70
0
 40
1.0
 71
1
 41
1.0
 91
-1023410177
 42
1.0
 72
1
  3

 73
1
 74
1
 75
1
 44
0.5
 73
0
 45
1.0
 46
1.0
 77
1
  4

 78
1
 79
1
170
1
 48
1.0
171
1
  6

172
1
173
1
174
1
140
1.0
141
1.0
175
1
  7

176
1
177
1
178
1
143
1.0
179
1
  8

270
1
271
1
272
1
145
1.0
146
1.0
273
1
  9

274
1
275
1
276
1
 42
1.0
 72
1
  3

 73
1
 74
1
 75
1
 94
63
  0
MATERIAL
  5
21
102
{ACAD_REACTORS
330
E
102
}
330
E
100
AcDbMaterial
  1
Global
  2

 70
0
 40
1.0
 71
1
 41
1.0
 91
-1023410177
 42
1.0
 72
1
  3

 73
1
 74
1
 75
1
 44
0.5
 73
0
 45
1.0
 46
1.0
 77
1
  4

 78
1
 79
1
170
1
 48
1.0
171
1
  6

172
1
173
1
174
1
140
1.0
141
1.0
175
1
  7

176
1
177
1
178
1
143
1.0
179
1
  8

270
1
271
1
272
1
145
1.0
146
1.0
273
1
  9

274
1
275
1
276
1
 42
1.0
 72
1
  3

 73
1
 74
1
 75
1
 94
63
  0
MLINESTYLE
  5
22
102
{ACAD_REACTORS
330
10
102
}
330
10
100
AcDbMlineStyle
  2
Standard
 70
0
  3

 62
256
 51
90.0
 52
90.0
 71
2
 49
0.5
 62
256
  6
BYLAYER
 49
-0.5
 62
256
  6
BYLAYER
  0
MLEADERSTYLE
  5
2C
102
{ACAD_REACTORS
330
F
102
}
330
F
100
AcDbMLeaderStyle
179
2
170
2
171
1
172
0
 90
2
 40
0.0
 41
0.0
173
1
 91
-1056964608
 92
-2
290
1
 42
2.0
291
1
 43
8.0
  3
Standard
 44
4.0
300

342
29
174
1
175
1
176
0
178
1
 93
-1056964608
 45
4.0
292
0
297
0
 46
4.0
 94
-1056964608
 47
1.0
 49
1.0
140
1.0
294
1
141
0.0
177
0
142
1.0
295
0
296
0
143
3.75
271
0
272
9
273
9
  0
DICTIONARY
  5
2D
330
A
100
AcDbDictionary
280
1
281
1
  3
CREATED_BY_EZDXF
350
2E
  3
WRITTEN_BY_EZDXF
350
4A
  0
DICTIONARYVAR
  5
2E
330
2D
100
DictionaryVariables
280
0
  1
1.4.4 @ 2026-05-16T09:22:38.630765+00:00
  0
DICTIONARYVAR
  5
4A
330
2D
100
DictionaryVariables
280
0
  1
1.4.4 @ 2026-05-16T09:22:38.635573+00:00
  0
ENDSEC
  0
EOF
